<svg width="60" height="36" viewBox="0 0 60 36" fill="none" xmlns="http://www.w3.org/2000/svg">
<path d="M20.0914 0.869141H40.0036V5.84719H20.0914V0.869141ZM10.1353 10.8252V5.84719H20.0914V10.8252H10.1353ZM5.15724 15.8033V10.8252H10.1353V15.8033H5.15724ZM5.15724 20.7813V15.8033H0.179199V20.7813H5.15724ZM10.1353 25.7594H5.15724V20.7813H10.1353V25.7594ZM20.0914 30.7374H10.1353V25.7594H20.0914V30.7374ZM40.0036 30.7374V35.7155H20.0914V30.7374H40.0036ZM49.9596 25.7594V30.7374H40.0036V25.7594H49.9596ZM54.9377 20.7813V25.7594H49.9596V20.7813H54.9377ZM54.9377 15.8033H59.9157V20.7813H54.9377V15.8033ZM49.9596 10.8252H54.9377V15.8033H49.9596V10.8252ZM49.9596 10.8252V5.84719H40.0036V10.8252H49.9596ZM25.0694 13.3143H35.0255V23.2703H25.0694V13.3143Z" fill="white"/>
</svg>
