<svg width="60" height="35" viewBox="0 0 60 35" fill="none" xmlns="http://www.w3.org/2000/svg">
<path d="M19.9122 0H39.8244V4.97804H19.9122V0ZM9.95609 9.95609V4.97804H19.9122V9.95609H9.95609ZM4.97804 14.9341V9.95609H9.95609V14.9341H4.97804ZM4.97804 19.9122V14.9341H0V19.9122H4.97804ZM9.95609 24.8902H4.97804V19.9122H9.95609V24.8902ZM19.9122 29.8683H9.95609V24.8902H19.9122V29.8683ZM39.8244 29.8683V34.8463H19.9122V29.8683H39.8244ZM49.7804 24.8902V29.8683H39.8244V24.8902H49.7804ZM54.7585 19.9122V24.8902H49.7804V19.9122H54.7585ZM54.7585 14.9341H59.7365V19.9122H54.7585V14.9341ZM49.7804 9.95609H54.7585V14.9341H49.7804V9.95609ZM49.7804 9.95609V4.97804H39.8244V9.95609H49.7804Z" fill="white"/>
</svg>
