<svg width="72" height="72" viewBox="0 0 72 72" fill="none" xmlns="http://www.w3.org/2000/svg">
<path d="M59.2413 0H65.1655V5.92413H71.0896V11.8483H65.1655V17.7724H59.2413V11.8483H53.3172V5.92413H59.2413V0ZM23.6965 11.8483H47.3931V17.7724H41.4689V23.6965H35.5448V17.7724H23.6965V11.8483ZM17.7724 23.6965V17.7724H23.6965V23.6965H17.7724ZM17.7724 47.3931H11.8483V23.6965H17.7724V47.3931ZM23.6965 53.3172H17.7724V47.3931H23.6965V53.3172ZM47.3931 53.3172V59.2413H23.6965V53.3172H47.3931ZM53.3172 47.3931V53.3172H47.3931V47.3931H53.3172ZM47.3931 35.5448V29.6207H53.3172V23.6965H59.2413V47.3931H53.3172V35.5448H47.3931ZM35.5448 35.5448H47.3931V41.4689H35.5448V35.5448ZM35.5448 35.5448V23.6965H29.6207V35.5448H35.5448ZM11.8483 53.3172H5.92413V59.2413H0V65.1655H5.92413V71.0896H11.8483V65.1655H17.7724V59.2413H11.8483V53.3172Z" fill="white"/>
<path d="M59.2413 0H65.1655V5.92413H71.0896V11.8483H65.1655V17.7724H59.2413V11.8483H53.3172V5.92413H59.2413V0ZM23.6965 11.8483H47.3931V17.7724H41.4689V23.6965H35.5448V17.7724H23.6965V11.8483ZM17.7724 23.6965V17.7724H23.6965V23.6965H17.7724ZM17.7724 47.3931H11.8483V23.6965H17.7724V47.3931ZM23.6965 53.3172H17.7724V47.3931H23.6965V53.3172ZM47.3931 53.3172V59.2413H23.6965V53.3172H47.3931ZM53.3172 47.3931V53.3172H47.3931V47.3931H53.3172ZM47.3931 35.5448V29.6207H53.3172V23.6965H59.2413V47.3931H53.3172V35.5448H47.3931ZM35.5448 35.5448H47.3931V41.4689H35.5448V35.5448ZM35.5448 35.5448V23.6965H29.6207V35.5448H35.5448ZM11.8483 53.3172H5.92413V59.2413H0V65.1655H5.92413V71.0896H11.8483V65.1655H17.7724V59.2413H11.8483V53.3172Z" fill="white"/>
<path d="M59.2413 0H65.1655V5.92413H71.0896V11.8483H65.1655V17.7724H59.2413V11.8483H53.3172V5.92413H59.2413V0ZM23.6965 11.8483H47.3931V17.7724H41.4689V23.6965H35.5448V17.7724H23.6965V11.8483ZM17.7724 23.6965V17.7724H23.6965V23.6965H17.7724ZM17.7724 47.3931H11.8483V23.6965H17.7724V47.3931ZM23.6965 53.3172H17.7724V47.3931H23.6965V53.3172ZM47.3931 53.3172V59.2413H23.6965V53.3172H47.3931ZM53.3172 47.3931V53.3172H47.3931V47.3931H53.3172ZM47.3931 35.5448V29.6207H53.3172V23.6965H59.2413V47.3931H53.3172V35.5448H47.3931ZM35.5448 35.5448H47.3931V41.4689H35.5448V35.5448ZM35.5448 35.5448V23.6965H29.6207V35.5448H35.5448ZM11.8483 53.3172H5.92413V59.2413H0V65.1655H5.92413V71.0896H11.8483V65.1655H17.7724V59.2413H11.8483V53.3172Z" fill="white"/>
<path d="M59.2413 0H65.1655V5.92413H71.0896V11.8483H65.1655V17.7724H59.2413V11.8483H53.3172V5.92413H59.2413V0ZM23.6965 11.8483H47.3931V17.7724H41.4689V23.6965H35.5448V17.7724H23.6965V11.8483ZM17.7724 23.6965V17.7724H23.6965V23.6965H17.7724ZM17.7724 47.3931H11.8483V23.6965H17.7724V47.3931ZM23.6965 53.3172H17.7724V47.3931H23.6965V53.3172ZM47.3931 53.3172V59.2413H23.6965V53.3172H47.3931ZM53.3172 47.3931V53.3172H47.3931V47.3931H53.3172ZM47.3931 35.5448V29.6207H53.3172V23.6965H59.2413V47.3931H53.3172V35.5448H47.3931ZM35.5448 35.5448H47.3931V41.4689H35.5448V35.5448ZM35.5448 35.5448V23.6965H29.6207V35.5448H35.5448ZM11.8483 53.3172H5.92413V59.2413H0V65.1655H5.92413V71.0896H11.8483V65.1655H17.7724V59.2413H11.8483V53.3172Z" fill="white"/>
<path d="M59.2413 0H65.1655V5.92413H71.0896V11.8483H65.1655V17.7724H59.2413V11.8483H53.3172V5.92413H59.2413V0ZM23.6965 11.8483H47.3931V17.7724H41.4689V23.6965H35.5448V17.7724H23.6965V11.8483ZM17.7724 23.6965V17.7724H23.6965V23.6965H17.7724ZM17.7724 47.3931H11.8483V23.6965H17.7724V47.3931ZM23.6965 53.3172H17.7724V47.3931H23.6965V53.3172ZM47.3931 53.3172V59.2413H23.6965V53.3172H47.3931ZM53.3172 47.3931V53.3172H47.3931V47.3931H53.3172ZM47.3931 35.5448V29.6207H53.3172V23.6965H59.2413V47.3931H53.3172V35.5448H47.3931ZM35.5448 35.5448H47.3931V41.4689H35.5448V35.5448ZM35.5448 35.5448V23.6965H29.6207V35.5448H35.5448ZM11.8483 53.3172H5.92413V59.2413H0V65.1655H5.92413V71.0896H11.8483V65.1655H17.7724V59.2413H11.8483V53.3172Z" fill="white"/>
<path d="M59.2413 0H65.1655V5.92413H71.0896V11.8483H65.1655V17.7724H59.2413V11.8483H53.3172V5.92413H59.2413V0ZM23.6965 11.8483H47.3931V17.7724H41.4689V23.6965H35.5448V17.7724H23.6965V11.8483ZM17.7724 23.6965V17.7724H23.6965V23.6965H17.7724ZM17.7724 47.3931H11.8483V23.6965H17.7724V47.3931ZM23.6965 53.3172H17.7724V47.3931H23.6965V53.3172ZM47.3931 53.3172V59.2413H23.6965V53.3172H47.3931ZM53.3172 47.3931V53.3172H47.3931V47.3931H53.3172ZM47.3931 35.5448V29.6207H53.3172V23.6965H59.2413V47.3931H53.3172V35.5448H47.3931ZM35.5448 35.5448H47.3931V41.4689H35.5448V35.5448ZM35.5448 35.5448V23.6965H29.6207V35.5448H35.5448ZM11.8483 53.3172H5.92413V59.2413H0V65.1655H5.92413V71.0896H11.8483V65.1655H17.7724V59.2413H11.8483V53.3172Z" fill="white"/>
</svg>
